<svg width="24" height="24" viewBox="0 0 24 24" fill="none" xmlns="http://www.w3.org/2000/svg">
<mask id="path-1-inside-1_868_844" fill="white">
<path d="M12 2C13.3261 2 14.5979 2.52678 15.5355 3.46447C16.4732 4.40215 17 5.67392 17 7C17 8.32608 16.4732 9.59785 15.5355 10.5355C14.5979 11.4732 13.3261 12 12 12C10.6739 12 9.40215 11.4732 8.46447 10.5355C7.52678 9.59785 7 8.32608 7 7C7 5.67392 7.52678 4.40215 8.46447 3.46447C9.40215 2.52678 10.6739 2 12 2M12 14.5C17.525 14.5 22 16.7375 22 19.5V22H2V19.5C2 16.7375 6.475 14.5 12 14.5Z"/>
</mask>
<path d="M17 7L18.5 7L17 7ZM12 12L12 13.5L12 12ZM7 7L5.5 7L7 7ZM22 22V23.5H23.5V22H22ZM2 22H0.5V23.5H2V22ZM12 3.5C12.9283 3.5 13.8185 3.86875 14.4749 4.52513L16.5962 2.40381C15.3772 1.18482 13.7239 0.5 12 0.5L12 3.5ZM14.4749 4.52513C15.1313 5.1815 15.5 6.07174 15.5 7L18.5 7C18.5 5.27609 17.8152 3.62279 16.5962 2.40381L14.4749 4.52513ZM15.5 7C15.5 7.92826 15.1313 8.8185 14.4749 9.47487L16.5962 11.5962C17.8152 10.3772 18.5 8.72391 18.5 7L15.5 7ZM14.4749 9.47487C13.8185 10.1313 12.9283 10.5 12 10.5L12 13.5C13.7239 13.5 15.3772 12.8152 16.5962 11.5962L14.4749 9.47487ZM12 10.5C11.0717 10.5 10.1815 10.1313 9.52513 9.47487L7.40381 11.5962C8.62279 12.8152 10.2761 13.5 12 13.5L12 10.5ZM9.52513 9.47487C8.86875 8.8185 8.5 7.92826 8.5 7L5.5 7C5.5 8.72391 6.18482 10.3772 7.40381 11.5962L9.52513 9.47487ZM8.5 7C8.5 6.07174 8.86875 5.1815 9.52513 4.52513L7.40381 2.40381C6.18482 3.62279 5.5 5.27609 5.5 7L8.5 7ZM9.52513 4.52513C10.1815 3.86875 11.0717 3.5 12 3.5L12 0.5C10.2761 0.5 8.62279 1.18482 7.40381 2.40381L9.52513 4.52513ZM12 16C14.5803 16 16.841 16.5257 18.4011 17.3057C20.0504 18.1304 20.5 18.9926 20.5 19.5H23.5C23.5 17.2449 21.7121 15.6071 19.7427 14.6224C17.684 13.5931 14.9447 13 12 13V16ZM20.5 19.5V22H23.5V19.5H20.5ZM22 20.5H2V23.5H22V20.5ZM3.5 22V19.5H0.5V22H3.5ZM3.5 19.5C3.5 18.9926 3.94956 18.1304 5.59895 17.3057C7.159 16.5257 9.41968 16 12 16V13C9.05532 13 6.316 13.5931 4.2573 14.6224C2.28794 15.6071 0.5 17.2449 0.5 19.5H3.5Z" fill="#4C74D9" mask="url(#path-1-inside-1_868_844)"/>
</svg>
