<svg width="13" height="14" viewBox="0 0 13 14" fill="none" xmlns="http://www.w3.org/2000/svg">
<g clip-path="url(#clip0_635_5431)">
<path d="M12.9996 6.59243C12.9213 5.32494 12.4738 4.10808 11.7122 3.09187C10.9506 2.07566 9.90834 1.30451 8.71381 0.873511C7.51928 0.442508 6.22474 0.370486 4.98977 0.666324C3.7548 0.962162 2.6334 1.61293 1.76382 2.53839C0.89423 3.46385 0.314474 4.62356 0.09602 5.87454C-0.122433 7.12551 0.0299662 8.41307 0.534431 9.57848C1.0389 10.7439 1.87337 11.7362 2.93498 12.4331C3.9966 13.13 5.23894 13.501 6.50884 13.5003H10.2913C11.0094 13.4996 11.6978 13.214 12.2056 12.7063C12.7133 12.1985 12.9989 11.51 12.9996 10.792V6.59243ZM11.9163 10.792C11.9163 11.2229 11.7451 11.6363 11.4403 11.941C11.1356 12.2458 10.7223 12.417 10.2913 12.417H6.50884C5.74451 12.4166 4.98884 12.2552 4.2911 11.9432C3.59335 11.6312 2.9692 11.1756 2.45934 10.6062C1.94702 10.037 1.56231 9.36494 1.33099 8.63494C1.09968 7.90495 1.02712 7.13393 1.11818 6.3736C1.26195 5.17432 1.80078 4.05699 2.64971 3.19776C3.49864 2.33854 4.60938 1.78628 5.80684 1.62806C6.04043 1.59878 6.2756 1.58395 6.51101 1.58364C7.77335 1.5802 8.99661 2.02125 9.9663 2.82947C10.5326 3.30015 10.9975 3.88093 11.3327 4.5366C11.6679 5.19228 11.8664 5.90919 11.9163 6.64389V10.792Z" fill="#B3B3B3"/>
<path d="M4.33366 5.37532H6.50033C6.64398 5.37532 6.78176 5.31826 6.88334 5.21667C6.98492 5.11509 7.04199 4.97732 7.04199 4.83366C7.04199 4.69 6.98492 4.55222 6.88334 4.45064C6.78176 4.34906 6.64398 4.29199 6.50033 4.29199H4.33366C4.19 4.29199 4.05222 4.34906 3.95064 4.45064C3.84906 4.55222 3.79199 4.69 3.79199 4.83366C3.79199 4.97732 3.84906 5.11509 3.95064 5.21667C4.05222 5.31826 4.19 5.37532 4.33366 5.37532Z" fill="#B3B3B3"/>
<path d="M8.66699 6.45801H4.33366C4.19 6.45801 4.05222 6.51508 3.95064 6.61666C3.84906 6.71824 3.79199 6.85602 3.79199 6.99968C3.79199 7.14334 3.84906 7.28111 3.95064 7.3827C4.05222 7.48428 4.19 7.54135 4.33366 7.54135H8.66699C8.81065 7.54135 8.94843 7.48428 9.05001 7.3827C9.15159 7.28111 9.20866 7.14334 9.20866 6.99968C9.20866 6.85602 9.15159 6.71824 9.05001 6.61666C8.94843 6.51508 8.81065 6.45801 8.66699 6.45801Z" fill="#B3B3B3"/>
<path d="M8.66699 8.625H4.33366C4.19 8.625 4.05222 8.68207 3.95064 8.78365C3.84906 8.88523 3.79199 9.02301 3.79199 9.16667C3.79199 9.31033 3.84906 9.44811 3.95064 9.54969C4.05222 9.65127 4.19 9.70834 4.33366 9.70834H8.66699C8.81065 9.70834 8.94843 9.65127 9.05001 9.54969C9.15159 9.44811 9.20866 9.31033 9.20866 9.16667C9.20866 9.02301 9.15159 8.88523 9.05001 8.78365C8.94843 8.68207 8.81065 8.625 8.66699 8.625Z" fill="#B3B3B3"/>
</g>
<defs>
<clipPath id="clip0_635_5431">
<rect width="13" height="13" fill="white" transform="translate(0 0.5)"/>
</clipPath>
</defs>
</svg>
