<svg width="19" height="25" viewBox="0 0 19 25" fill="none" xmlns="http://www.w3.org/2000/svg">
<path d="M17.349 3.2521L15.624 1.52502C15.1413 1.03993 14.5673 0.655374 13.935 0.393608C13.3028 0.131843 12.6249 -0.00193333 11.9406 2.11098e-05H5.33333C3.9525 0.00167513 2.62871 0.55094 1.65231 1.52733C0.675919 2.50373 0.126654 3.82753 0.125 5.20836V19.7917C0.126654 21.1725 0.675919 22.4963 1.65231 23.4727C2.62871 24.4491 3.9525 24.9984 5.33333 25H13.6667C15.0475 24.9984 16.3713 24.4491 17.3477 23.4727C18.3241 22.4963 18.8733 21.1725 18.875 19.7917V6.9344C18.8767 6.25021 18.7427 5.57249 18.4807 4.94043C18.2188 4.30837 17.8341 3.73453 17.349 3.2521ZM15.876 4.72502C16.0238 4.87223 16.1561 5.03419 16.2708 5.20836H13.6667V2.60419C13.8406 2.72015 14.0028 2.85271 14.151 3.00002L15.876 4.72502ZM16.7917 19.7917C16.7917 20.6205 16.4624 21.4154 15.8764 22.0014C15.2903 22.5875 14.4955 22.9167 13.6667 22.9167H5.33333C4.50453 22.9167 3.70968 22.5875 3.12362 22.0014C2.53757 21.4154 2.20833 20.6205 2.20833 19.7917V5.20836C2.20833 4.37955 2.53757 3.5847 3.12362 2.99865C3.70968 2.4126 4.50453 2.08335 5.33333 2.08335H11.5833V5.20836C11.5833 5.76089 11.8028 6.29079 12.1935 6.68149C12.5842 7.0722 13.1141 7.29169 13.6667 7.29169H16.7917V19.7917ZM13.6667 9.37502C13.9429 9.37502 14.2079 9.48477 14.4032 9.68012C14.5986 9.87547 14.7083 10.1404 14.7083 10.4167C14.7083 10.693 14.5986 10.9579 14.4032 11.1533C14.2079 11.3486 13.9429 11.4584 13.6667 11.4584H5.33333C5.05707 11.4584 4.79211 11.3486 4.59676 11.1533C4.40141 10.9579 4.29167 10.693 4.29167 10.4167C4.29167 10.1404 4.40141 9.87547 4.59676 9.68012C4.79211 9.48477 5.05707 9.37502 5.33333 9.37502H13.6667ZM14.7083 14.5834C14.7083 14.8596 14.5986 15.1246 14.4032 15.3199C14.2079 15.5153 13.9429 15.625 13.6667 15.625H5.33333C5.05707 15.625 4.79211 15.5153 4.59676 15.3199C4.40141 15.1246 4.29167 14.8596 4.29167 14.5834C4.29167 14.3071 4.40141 14.0421 4.59676 13.8468C4.79211 13.6514 5.05707 13.5417 5.33333 13.5417H13.6667C13.9429 13.5417 14.2079 13.6514 14.4032 13.8468C14.5986 14.0421 14.7083 14.3071 14.7083 14.5834ZM14.5083 18.1386C14.6703 18.3613 14.7374 18.6391 14.695 18.9113C14.6527 19.1834 14.5043 19.4277 14.2823 19.5907C13.2269 20.3427 11.9769 20.7742 10.6823 20.8334C9.92592 20.8297 9.19252 20.573 8.59896 20.1042C8.25729 19.8698 8.12708 19.7917 7.86979 19.7917C7.17336 19.8995 6.51627 20.1842 5.96146 20.6188C5.7414 20.7756 5.469 20.8409 5.20176 20.8006C4.93453 20.7604 4.69338 20.6179 4.52925 20.4032C4.36512 20.1885 4.29086 19.9184 4.32213 19.65C4.35341 19.3816 4.48778 19.1358 4.69687 18.9646C5.61477 18.252 6.71696 17.8162 7.87396 17.7084C8.56785 17.7194 9.23867 17.9593 9.78229 18.3907C10.0301 18.6135 10.3491 18.7409 10.6823 18.75C11.534 18.6862 12.3531 18.3952 13.0542 17.9073C13.2777 17.7453 13.5564 17.6786 13.8291 17.722C14.1018 17.7653 14.3461 17.9152 14.5083 18.1386Z" fill="white"/>
</svg>
