<svg width="24" height="25" viewBox="0 0 24 25" fill="none" xmlns="http://www.w3.org/2000/svg">
<path d="M10.1053 14.375V24.375H0V14.375H10.1053ZM7.57895 16.875H2.52632V21.875H7.57895V16.875ZM11.3684 0L18.3158 11.25H4.42105L11.3684 0ZM11.3684 4.825L8.94316 8.75H13.7937L11.3684 4.825ZM18.3158 13.75C21.4737 13.75 24 16.25 24 19.375C24 22.5 21.4737 25 18.3158 25C15.1579 25 12.6316 22.5 12.6316 19.375C12.6316 16.25 15.1579 13.75 18.3158 13.75ZM18.3158 16.25C17.4783 16.25 16.675 16.5792 16.0828 17.1653C15.4906 17.7513 15.1579 18.5462 15.1579 19.375C15.1579 20.2038 15.4906 20.9987 16.0828 21.5847C16.675 22.1708 17.4783 22.5 18.3158 22.5C19.1533 22.5 19.9565 22.1708 20.5488 21.5847C21.141 20.9987 21.4737 20.2038 21.4737 19.375C21.4737 18.5462 21.141 17.7513 20.5488 17.1653C19.9565 16.5792 19.1533 16.25 18.3158 16.25Z" fill="white"/>
</svg>
