<svg width="13" height="14" viewBox="0 0 13 14" fill="none" xmlns="http://www.w3.org/2000/svg">
<path d="M10.9079 13.5C10.7076 13.4994 10.5093 13.4592 10.3245 13.3816C10.1398 13.3039 9.97227 13.1905 9.83164 13.0477L6.50039 9.73596L3.16914 13.0499C2.9552 13.2669 2.68082 13.4145 2.38178 13.4733C2.08275 13.5322 1.77292 13.4996 1.49268 13.3798C1.20967 13.2659 0.967563 13.0694 0.797974 12.8158C0.628385 12.5623 0.539198 12.2635 0.542059 11.9584V3.20833C0.542059 2.49004 0.8274 1.80116 1.33531 1.29325C1.84322 0.785341 2.5321 0.5 3.25039 0.5L9.75039 0.5C10.1061 0.5 10.4582 0.570053 10.7868 0.70616C11.1154 0.842266 11.414 1.04176 11.6655 1.29325C11.917 1.54474 12.1165 1.84331 12.2526 2.1719C12.3887 2.50049 12.4587 2.85267 12.4587 3.20833V11.9584C12.4618 12.2632 12.3729 12.5618 12.2037 12.8154C12.0345 13.0689 11.7929 13.2656 11.5103 13.3798C11.3195 13.4595 11.1147 13.5004 10.9079 13.5ZM3.25039 1.58333C2.81942 1.58333 2.40609 1.75454 2.10134 2.05928C1.7966 2.36403 1.62539 2.77736 1.62539 3.20833V11.9584C1.6252 12.0487 1.65176 12.137 1.70171 12.2121C1.75167 12.2873 1.82279 12.346 1.90608 12.3808C1.98937 12.4156 2.0811 12.4249 2.16968 12.4075C2.25826 12.3902 2.33972 12.347 2.40377 12.2834V12.2834L6.12123 8.58871C6.22271 8.48782 6.36 8.4312 6.5031 8.4312C6.6462 8.4312 6.78349 8.48782 6.88498 8.58871L10.5981 12.2823C10.6621 12.3459 10.7436 12.3891 10.8322 12.4065C10.9208 12.4238 11.0125 12.4145 11.0958 12.3797C11.1791 12.3449 11.2502 12.2862 11.3002 12.2111C11.3501 12.1359 11.3767 12.0476 11.3765 11.9573V3.20833C11.3765 2.77736 11.2053 2.36403 10.9005 2.05928C10.5958 1.75454 10.1825 1.58333 9.75148 1.58333H3.25039Z" fill="#B3B3B3"/>
</svg>
