<svg width="25" height="25" viewBox="0 0 25 25" fill="none" xmlns="http://www.w3.org/2000/svg">
<path d="M17.7085 25C16.2663 25 14.8566 24.5724 13.6575 23.7711C12.4584 22.9699 11.5238 21.8311 10.9719 20.4987C10.42 19.1664 10.2756 17.7002 10.5569 16.2858C10.8383 14.8714 11.5328 13.5721 12.5525 12.5523C13.5723 11.5326 14.8715 10.8381 16.286 10.5568C17.7004 10.2754 19.1665 10.4198 20.4989 10.9717C21.8313 11.5236 22.9701 12.4582 23.7713 13.6573C24.5725 14.8564 25.0002 16.2662 25.0002 17.7083C24.998 19.6415 24.229 21.4949 22.862 22.8619C21.4951 24.2289 19.6417 24.9978 17.7085 25ZM17.7085 12.5C16.6784 12.5 15.6714 12.8055 14.8149 13.3778C13.9584 13.9501 13.2908 14.7635 12.8966 15.7152C12.5024 16.6669 12.3993 17.7141 12.6002 18.7244C12.8012 19.7347 13.2973 20.6628 14.0257 21.3912C14.754 22.1196 15.6821 22.6156 16.6924 22.8166C17.7027 23.0176 18.7499 22.9144 19.7016 22.5202C20.6533 22.126 21.4668 21.4584 22.0391 20.6019C22.6114 19.7454 22.9168 18.7384 22.9168 17.7083C22.9152 16.3275 22.3659 15.0037 21.3895 14.0273C20.4131 13.0509 19.0893 12.5017 17.7085 12.5ZM19.4866 19.4865C19.6819 19.2911 19.7916 19.0262 19.7916 18.75C19.7916 18.4738 19.6819 18.2089 19.4866 18.0135L18.7502 17.2771V15.625C18.7502 15.3487 18.6404 15.0838 18.4451 14.8884C18.2497 14.6931 17.9848 14.5833 17.7085 14.5833C17.4322 14.5833 17.1673 14.6931 16.9719 14.8884C16.7766 15.0838 16.6668 15.3487 16.6668 15.625V17.7083C16.6669 17.9846 16.7767 18.2495 16.972 18.4448L18.0137 19.4865C18.209 19.6817 18.474 19.7914 18.7502 19.7914C19.0264 19.7914 19.2913 19.6817 19.4866 19.4865ZM2.0835 23.9583C2.08613 22.0444 2.72379 20.1854 3.89652 18.6728C5.06925 17.1601 6.71075 16.0794 8.56371 15.6C8.69722 15.5698 8.82347 15.5135 8.93525 15.4345C9.04702 15.3555 9.14214 15.2552 9.21517 15.1394C9.2882 15.0237 9.33771 14.8946 9.36087 14.7597C9.38404 14.6248 9.3804 14.4866 9.35017 14.3531C9.31993 14.2196 9.2637 14.0934 9.18468 13.9816C9.10566 13.8698 9.00539 13.7747 8.88961 13.7017C8.77383 13.6286 8.64479 13.5791 8.50988 13.556C8.37496 13.5328 8.2368 13.5364 8.10329 13.5667C5.78145 14.1364 3.71919 15.4716 2.2491 17.3569C0.779 19.2422 -0.0132319 21.5677 0.000167212 23.9583C0.000167212 24.2346 0.109914 24.4996 0.305264 24.6949C0.500615 24.8903 0.765567 25 1.04183 25C1.3181 25 1.58305 24.8903 1.7784 24.6949C1.97375 24.4996 2.0835 24.2346 2.0835 23.9583ZM8.82725 11.4583C7.69413 11.4583 6.58645 11.1223 5.6443 10.4928C4.70214 9.86327 3.96782 8.96849 3.53419 7.92163C3.10056 6.87476 2.98711 5.72281 3.20817 4.61146C3.42923 3.50011 3.97488 2.47927 4.77612 1.67804C5.57736 0.876798 6.5982 0.331148 7.70954 0.110087C8.82089 -0.110974 9.97284 0.00248238 11.0197 0.436109C12.0666 0.869736 12.9613 1.60406 13.5909 2.54621C14.2204 3.48837 14.5564 4.59605 14.5564 5.72917C14.5548 7.24813 13.9506 8.70441 12.8766 9.77847C11.8025 10.8525 10.3462 11.4567 8.82725 11.4583ZM8.82725 2.08334C8.10617 2.08334 7.40129 2.29716 6.80173 2.69777C6.20218 3.09838 5.73488 3.66778 5.45894 4.33397C5.18299 5.00016 5.1108 5.73321 5.25147 6.44044C5.39215 7.14766 5.73938 7.79728 6.24926 8.30716C6.75914 8.81704 7.40876 9.16427 8.11598 9.30495C8.82321 9.44562 9.55626 9.37343 10.2224 9.09748C10.8886 8.82154 11.458 8.35424 11.8586 7.75469C12.2593 7.15513 12.4731 6.45025 12.4731 5.72917C12.4731 4.76223 12.089 3.8349 11.4052 3.15118C10.7215 2.46745 9.79418 2.08334 8.82725 2.08334Z" fill="white"/>
</svg>
