<svg width="25" height="25" viewBox="0 0 25 25" fill="none" xmlns="http://www.w3.org/2000/svg">
<path d="M19.7917 0H5.20833C3.82751 0.00165402 2.50371 0.550919 1.52731 1.52731C0.550919 2.50371 0.00165402 3.82751 0 5.20833L0 19.7917C0.00165402 21.1725 0.550919 22.4963 1.52731 23.4727C2.50371 24.4491 3.82751 24.9983 5.20833 25H19.7917C21.1725 24.9983 22.4963 24.4491 23.4727 23.4727C24.4491 22.4963 24.9983 21.1725 25 19.7917V5.20833C24.9983 3.82751 24.4491 2.50371 23.4727 1.52731C22.4963 0.550919 21.1725 0.00165402 19.7917 0V0ZM7.29167 22.9167V21.875C7.29167 20.4937 7.8404 19.1689 8.81715 18.1922C9.7939 17.2154 11.1187 16.6667 12.5 16.6667C13.8813 16.6667 15.2061 17.2154 16.1828 18.1922C17.1596 19.1689 17.7083 20.4937 17.7083 21.875V22.9167H7.29167ZM22.9167 19.7917C22.9167 20.6205 22.5874 21.4153 22.0014 22.0014C21.4153 22.5874 20.6205 22.9167 19.7917 22.9167V21.875C19.7917 19.9411 19.0234 18.0865 17.656 16.719C16.2885 15.3516 14.4339 14.5833 12.5 14.5833C10.5661 14.5833 8.71147 15.3516 7.34401 16.719C5.97656 18.0865 5.20833 19.9411 5.20833 21.875V22.9167C4.37953 22.9167 3.58468 22.5874 2.99862 22.0014C2.41257 21.4153 2.08333 20.6205 2.08333 19.7917V5.20833C2.08333 4.37953 2.41257 3.58468 2.99862 2.99862C3.58468 2.41257 4.37953 2.08333 5.20833 2.08333H19.7917C20.6205 2.08333 21.4153 2.41257 22.0014 2.99862C22.5874 3.58468 22.9167 4.37953 22.9167 5.20833V19.7917Z" fill="white"/>
<path d="M12.4997 4.16699C11.6756 4.16699 10.87 4.41136 10.1848 4.8692C9.4996 5.32704 8.96554 5.97779 8.65018 6.73914C8.33481 7.5005 8.2523 8.33828 8.41307 9.14653C8.57384 9.95479 8.97068 10.6972 9.5534 11.2799C10.1361 11.8627 10.8785 12.2595 11.6868 12.4203C12.4951 12.581 13.3328 12.4985 14.0942 12.1832C14.8556 11.8678 15.5063 11.3337 15.9641 10.6485C16.422 9.96333 16.6663 9.15775 16.6663 8.33366C16.6663 7.22859 16.2274 6.16878 15.446 5.38738C14.6646 4.60598 13.6047 4.16699 12.4997 4.16699ZM12.4997 10.417C12.0876 10.417 11.6848 10.2948 11.3422 10.0659C10.9996 9.83697 10.7326 9.51159 10.5749 9.13092C10.4172 8.75024 10.376 8.33135 10.4564 7.92722C10.5368 7.52309 10.7352 7.15188 11.0265 6.86052C11.3179 6.56916 11.6891 6.37074 12.0932 6.29036C12.4974 6.20997 12.9163 6.25123 13.2969 6.40891C13.6776 6.56659 14.003 6.83362 14.2319 7.17622C14.4608 7.51882 14.583 7.92161 14.583 8.33366C14.583 8.88619 14.3635 9.4161 13.9728 9.8068C13.5821 10.1975 13.0522 10.417 12.4997 10.417Z" fill="white"/>
</svg>
