<svg width="21" height="25" viewBox="0 0 21 25" fill="none" xmlns="http://www.w3.org/2000/svg">
<path d="M10.4167 15.6258C10.1404 15.6258 9.87545 15.516 9.6801 15.3207C9.48475 15.1253 9.375 14.8604 9.375 14.5841V6.25076C9.375 5.97449 9.48475 5.70954 9.6801 5.51419C9.87545 5.31884 10.1404 5.20909 10.4167 5.20909C10.6929 5.20909 10.9579 5.31884 11.1532 5.51419C11.3486 5.70954 11.4583 5.97449 11.4583 6.25076V14.5841C11.4583 14.8604 11.3486 15.1253 11.1532 15.3207C10.9579 15.516 10.6929 15.6258 10.4167 15.6258ZM11.2427 24.7508C13.4927 23.8466 20.8333 20.2914 20.8333 12.5455V7.15909C20.8345 6.06431 20.4902 4.99708 19.8494 4.10942C19.2086 3.22175 18.3041 2.55892 17.2646 2.21534L10.7448 0.0538814C10.5319 -0.0179605 10.3014 -0.0179605 10.0885 0.0538814L3.56875 2.21534C2.52929 2.55892 1.62474 3.22175 0.983962 4.10942C0.343184 4.99708 -0.00115152 6.06431 2.89323e-06 7.15909V12.5455C2.89323e-06 19.381 7.29688 23.5622 9.53438 24.681C9.81738 24.816 10.1129 24.9231 10.4167 25.0008C10.6991 24.943 10.9756 24.8593 11.2427 24.7508V24.7508ZM16.6083 4.19242C17.2318 4.39911 17.7743 4.79698 18.1588 5.32954C18.5432 5.8621 18.7501 6.50226 18.75 7.15909V12.5455C18.75 18.9862 12.4094 22.0362 10.4656 22.8174C8.49896 21.8341 2.08334 18.1872 2.08334 12.5455V7.15909C2.08325 6.50226 2.29013 5.8621 2.67459 5.32954C3.05905 4.79698 3.60154 4.39911 4.225 4.19242L10.4167 2.14034L16.6083 4.19242ZM10.4167 17.7091C10.2106 17.7091 10.0093 17.7702 9.83795 17.8846C9.66665 17.9991 9.53314 18.1618 9.4543 18.3521C9.37545 18.5425 9.35483 18.7519 9.39502 18.954C9.43521 19.156 9.53442 19.3416 9.6801 19.4873C9.82578 19.633 10.0114 19.7322 10.2135 19.7724C10.4155 19.8126 10.625 19.792 10.8153 19.7131C11.0056 19.6343 11.1683 19.5008 11.2828 19.3295C11.3972 19.1582 11.4583 18.9568 11.4583 18.7508C11.4583 18.4745 11.3486 18.2095 11.1532 18.0142C10.9579 17.8188 10.6929 17.7091 10.4167 17.7091Z" fill="white"/>
</svg>
