<svg width="13" height="14" viewBox="0 0 13 14" fill="none" xmlns="http://www.w3.org/2000/svg">
<g clip-path="url(#clip0_635_5425)">
<path d="M12.3354 4.6827C12.0814 4.38998 11.7675 4.15527 11.4149 3.99443C11.0623 3.8336 10.6792 3.75041 10.2917 3.75049H8.13096L8.31296 2.64495C8.37736 2.25563 8.29966 1.85614 8.09405 1.51933C7.88844 1.18253 7.56861 0.93085 7.1929 0.81021C6.81719 0.689569 6.41062 0.708002 6.04737 0.862147C5.68412 1.01629 5.38837 1.29588 5.21408 1.64991L4.17733 3.75049H2.70833C1.9903 3.75135 1.30193 4.03697 0.794202 4.54469C0.286478 5.05242 0.00086009 5.74079 0 6.45882L0 9.16716C0.00086009 9.88519 0.286478 10.5736 0.794202 11.0813C1.30193 11.589 1.9903 11.8746 2.70833 11.8755H9.9125C10.5644 11.8728 11.1936 11.6362 11.6858 11.2088C12.178 10.7813 12.5004 10.1914 12.5943 9.54632L12.9762 6.83799C13.0299 6.4538 13.0006 6.06255 12.89 5.6907C12.7795 5.31886 12.5903 4.9751 12.3354 4.6827ZM1.08333 9.16716V6.45882C1.08333 6.02785 1.25454 5.61452 1.55928 5.30977C1.86403 5.00503 2.27736 4.83382 2.70833 4.83382H3.79167V10.7922H2.70833C2.27736 10.7922 1.86403 10.621 1.55928 10.3162C1.25454 10.0115 1.08333 9.59813 1.08333 9.16716ZM11.901 6.68578L11.5185 9.39412C11.4626 9.78086 11.2698 10.1347 10.975 10.3913C10.6803 10.6478 10.3033 10.7901 9.9125 10.7922H4.875V4.68974C4.92605 4.64527 4.96831 4.59162 4.99958 4.53157L6.18529 2.12928C6.22976 2.04908 6.29262 1.98057 6.36872 1.92938C6.44481 1.8782 6.53196 1.84581 6.62301 1.83486C6.71407 1.82392 6.80641 1.83473 6.89247 1.86642C6.97853 1.89812 7.05583 1.94977 7.11804 2.01716C7.17126 2.07904 7.21016 2.15191 7.23198 2.23056C7.2538 2.30921 7.25799 2.3917 7.24425 2.47216L6.95825 4.20549C6.9457 4.28294 6.95012 4.36219 6.97121 4.43776C6.9923 4.51333 7.02955 4.58342 7.0804 4.64317C7.13124 4.70293 7.19446 4.75092 7.26568 4.78384C7.3369 4.81676 7.41442 4.83381 7.49288 4.83382H10.2917C10.5243 4.83379 10.7541 4.88369 10.9658 4.98015C11.1774 5.07661 11.3659 5.21738 11.5185 5.39295C11.671 5.56852 11.7841 5.77479 11.8501 5.99783C11.9161 6.22087 11.9334 6.45547 11.901 6.68578Z" fill="#ED4C5C"/>
</g>
<defs>
<clipPath id="clip0_635_5425">
<rect width="13" height="13" fill="white" transform="translate(0 0.5)"/>
</clipPath>
</defs>
</svg>
