<svg width="22" height="21" viewBox="0 0 22 21" fill="none" xmlns="http://www.w3.org/2000/svg">
<path d="M11 0C12.4587 0 13.8576 0.553123 14.8891 1.53769C15.9205 2.52226 16.5 3.85761 16.5 5.25C16.5 6.64239 15.9205 7.97774 14.8891 8.96231C13.8576 9.94688 12.4587 10.5 11 10.5C9.54131 10.5 8.14236 9.94688 7.11091 8.96231C6.07946 7.97774 5.5 6.64239 5.5 5.25C5.5 3.85761 6.07946 2.52226 7.11091 1.53769C8.14236 0.553123 9.54131 0 11 0M11 2.625C10.2707 2.625 9.57118 2.90156 9.05546 3.39384C8.53973 3.88613 8.25 4.55381 8.25 5.25C8.25 5.94619 8.53973 6.61387 9.05546 7.10615C9.57118 7.59844 10.2707 7.875 11 7.875C11.7293 7.875 12.4288 7.59844 12.9445 7.10615C13.4603 6.61387 13.75 5.94619 13.75 5.25C13.75 4.55381 13.4603 3.88613 12.9445 3.39384C12.4288 2.90156 11.7293 2.625 11 2.625M11 11.8125C14.6713 11.8125 22 13.5581 22 17.0625V21H0V17.0625C0 13.5581 7.32875 11.8125 11 11.8125ZM11 14.3062C6.91625 14.3062 2.6125 16.2225 2.6125 17.0625V18.5063H19.3875V17.0625C19.3875 16.2225 15.0838 14.3062 11 14.3062Z" fill="#4C74D9"/>
</svg>
